<mxfile host="app.diagrams.net" agent="Mozilla/5.0 (Macintosh; Intel Mac OS X 10_15_7) AppleWebKit/537.36 (KHTML, like Gecko) Chrome/141.0.0.0 Safari/537.36" version="28.2.8">
  <diagram name="Top-Level Architecture" id="TROxGRHwthohwfCNFghT">
    <mxGraphModel dx="1734" dy="991" grid="1" gridSize="10" guides="1" tooltips="1" connect="1" arrows="1" fold="1" page="1" pageScale="1" pageWidth="1100" pageHeight="850" math="0" shadow="0">
      <root>
        <mxCell id="0" />
        <mxCell id="1" parent="0" />
        <mxCell id="yfXjeQQ5Y2JoiUGeMslx-11" value="Application Logic &amp;amp; Data" style="rounded=1;whiteSpace=wrap;html=1;strokeColor=#0000CC;strokeWidth=2;fillColor=none;verticalAlign=top;fontSize=24;" parent="1" vertex="1">
          <mxGeometry x="390" y="130" width="498" height="590" as="geometry" />
        </mxCell>
        <mxCell id="yfXjeQQ5Y2JoiUGeMslx-12" value="Analytics" style="rounded=1;whiteSpace=wrap;html=1;strokeColor=#0000CC;strokeWidth=2;fillColor=none;verticalAlign=top;fontSize=24;" parent="1" vertex="1">
          <mxGeometry x="910" y="130" width="170" height="590" as="geometry" />
        </mxCell>
        <mxCell id="yfXjeQQ5Y2JoiUGeMslx-13" value="AI Enablement" style="rounded=1;whiteSpace=wrap;html=1;strokeColor=#0000CC;strokeWidth=2;fillColor=none;verticalAlign=top;fontSize=24;" parent="1" vertex="1">
          <mxGeometry x="20" y="130" width="350" height="590" as="geometry" />
        </mxCell>
        <mxCell id="f0TFdQRqyOJq5nWY4yst-22" style="edgeStyle=orthogonalEdgeStyle;rounded=0;orthogonalLoop=1;jettySize=auto;html=1;exitX=0;exitY=0.5;exitDx=0;exitDy=0;entryX=1;entryY=0.5;entryDx=0;entryDy=0;strokeWidth=2;strokeColor=#FF0000;" edge="1" parent="1" source="tunja0gr6lBs-Br6g-3u-2" target="f0TFdQRqyOJq5nWY4yst-6">
          <mxGeometry relative="1" as="geometry" />
        </mxCell>
        <mxCell id="tunja0gr6lBs-Br6g-3u-2" value="Monolithic App&lt;br&gt;&lt;br&gt;&lt;i&gt;Elastic Kubernetes Service&lt;/i&gt;" style="rounded=1;whiteSpace=wrap;html=1;" parent="1" vertex="1">
          <mxGeometry x="418" y="365" width="330" height="60" as="geometry" />
        </mxCell>
        <mxCell id="tunja0gr6lBs-Br6g-3u-3" value="Transactional DB&lt;br&gt;&lt;i&gt;DynamoDB&lt;/i&gt;" style="shape=cylinder3;whiteSpace=wrap;html=1;boundedLbl=1;backgroundOutline=1;size=15;" parent="1" vertex="1">
          <mxGeometry x="418" y="452" width="110" height="100" as="geometry" />
        </mxCell>
        <mxCell id="tunja0gr6lBs-Br6g-3u-13" style="edgeStyle=orthogonalEdgeStyle;rounded=0;orthogonalLoop=1;jettySize=auto;html=1;exitX=0.5;exitY=0;exitDx=0;exitDy=0;startArrow=classic;startFill=1;endArrow=none;endFill=0;entryX=0.853;entryY=1.02;entryDx=0;entryDy=0;entryPerimeter=0;" parent="1" source="tunja0gr6lBs-Br6g-3u-6" target="tunja0gr6lBs-Br6g-3u-2" edge="1">
          <mxGeometry relative="1" as="geometry">
            <mxPoint x="700" y="440" as="targetPoint" />
          </mxGeometry>
        </mxCell>
        <mxCell id="yfXjeQQ5Y2JoiUGeMslx-8" style="edgeStyle=orthogonalEdgeStyle;rounded=0;orthogonalLoop=1;jettySize=auto;html=1;exitX=1;exitY=0.5;exitDx=0;exitDy=0;" parent="1" source="tunja0gr6lBs-Br6g-3u-6" target="yfXjeQQ5Y2JoiUGeMslx-1" edge="1">
          <mxGeometry relative="1" as="geometry" />
        </mxCell>
        <mxCell id="tunja0gr6lBs-Br6g-3u-6" value="Event Bus&lt;br&gt;&lt;i&gt;EventBridge&lt;/i&gt;" style="rounded=1;whiteSpace=wrap;html=1;" parent="1" vertex="1">
          <mxGeometry x="649" y="473" width="169" height="60" as="geometry" />
        </mxCell>
        <mxCell id="tunja0gr6lBs-Br6g-3u-7" value="Pub/Sub&lt;br&gt;&lt;i&gt;Simple Notification Service&lt;/i&gt;" style="shape=cylinder3;whiteSpace=wrap;html=1;boundedLbl=1;backgroundOutline=1;size=15;" parent="1" vertex="1">
          <mxGeometry x="676.5" y="596" width="115" height="108" as="geometry" />
        </mxCell>
        <mxCell id="tunja0gr6lBs-Br6g-3u-8" style="edgeStyle=orthogonalEdgeStyle;rounded=0;orthogonalLoop=1;jettySize=auto;html=1;entryX=0.5;entryY=0;entryDx=0;entryDy=0;entryPerimeter=0;exitX=0.167;exitY=0.996;exitDx=0;exitDy=0;exitPerimeter=0;" parent="1" target="tunja0gr6lBs-Br6g-3u-3" edge="1" source="tunja0gr6lBs-Br6g-3u-2">
          <mxGeometry relative="1" as="geometry">
            <mxPoint x="473" y="430" as="sourcePoint" />
            <Array as="points" />
          </mxGeometry>
        </mxCell>
        <mxCell id="tunja0gr6lBs-Br6g-3u-11" style="edgeStyle=orthogonalEdgeStyle;rounded=0;orthogonalLoop=1;jettySize=auto;html=1;exitX=0.5;exitY=1;exitDx=0;exitDy=0;entryX=0.5;entryY=0;entryDx=0;entryDy=0;entryPerimeter=0;startArrow=classic;startFill=1;" parent="1" source="tunja0gr6lBs-Br6g-3u-6" target="tunja0gr6lBs-Br6g-3u-7" edge="1">
          <mxGeometry relative="1" as="geometry" />
        </mxCell>
        <mxCell id="tunja0gr6lBs-Br6g-3u-12" value="Publish &amp;amp; Subscribe" style="edgeLabel;html=1;align=center;verticalAlign=middle;resizable=0;points=[];" parent="tunja0gr6lBs-Br6g-3u-11" vertex="1" connectable="0">
          <mxGeometry x="-0.5714" y="1" relative="1" as="geometry">
            <mxPoint y="19" as="offset" />
          </mxGeometry>
        </mxCell>
        <mxCell id="tunja0gr6lBs-Br6g-3u-22" style="edgeStyle=orthogonalEdgeStyle;rounded=0;orthogonalLoop=1;jettySize=auto;html=1;exitX=0.5;exitY=1;exitDx=0;exitDy=0;entryX=0.5;entryY=0;entryDx=0;entryDy=0;" parent="1" source="tunja0gr6lBs-Br6g-3u-15" target="tunja0gr6lBs-Br6g-3u-16" edge="1">
          <mxGeometry relative="1" as="geometry" />
        </mxCell>
        <mxCell id="tunja0gr6lBs-Br6g-3u-15" value="CDN &lt;i&gt;CloudFront&lt;/i&gt;" style="rounded=1;whiteSpace=wrap;html=1;" parent="1" vertex="1">
          <mxGeometry x="418" y="250" width="120" height="30" as="geometry" />
        </mxCell>
        <mxCell id="tunja0gr6lBs-Br6g-3u-16" value="Admin UI&lt;br&gt;&lt;i&gt;Angular SPA&lt;/i&gt;" style="rounded=1;whiteSpace=wrap;html=1;" parent="1" vertex="1">
          <mxGeometry x="418" y="300" width="120" height="40" as="geometry" />
        </mxCell>
        <mxCell id="tunja0gr6lBs-Br6g-3u-17" value="Android App&lt;br&gt;&lt;i&gt;Kotlin&lt;/i&gt;" style="rounded=1;whiteSpace=wrap;html=1;" parent="1" vertex="1">
          <mxGeometry x="559" y="300" width="90" height="40" as="geometry" />
        </mxCell>
        <mxCell id="tunja0gr6lBs-Br6g-3u-18" value="IOS App&lt;br&gt;&lt;i&gt;Swift&lt;/i&gt;" style="rounded=1;whiteSpace=wrap;html=1;" parent="1" vertex="1">
          <mxGeometry x="658" y="300" width="90" height="40" as="geometry" />
        </mxCell>
        <mxCell id="tunja0gr6lBs-Br6g-3u-26" value="Reporting&lt;br&gt;&lt;i&gt;Tableau&lt;/i&gt;" style="rounded=1;whiteSpace=wrap;html=1;" parent="1" vertex="1">
          <mxGeometry x="940" y="250" width="110" height="60" as="geometry" />
        </mxCell>
        <mxCell id="tunja0gr6lBs-Br6g-3u-27" value="Analytical DB&lt;br&gt;&lt;i&gt;RDS PostgreSQL&lt;/i&gt;" style="shape=cylinder3;whiteSpace=wrap;html=1;boundedLbl=1;backgroundOutline=1;size=15;" parent="1" vertex="1">
          <mxGeometry x="943" y="345" width="105" height="80" as="geometry" />
        </mxCell>
        <mxCell id="tunja0gr6lBs-Br6g-3u-28" style="edgeStyle=orthogonalEdgeStyle;rounded=0;orthogonalLoop=1;jettySize=auto;html=1;exitX=0.5;exitY=1;exitDx=0;exitDy=0;entryX=0.5;entryY=0;entryDx=0;entryDy=0;entryPerimeter=0;" parent="1" source="tunja0gr6lBs-Br6g-3u-26" target="tunja0gr6lBs-Br6g-3u-27" edge="1">
          <mxGeometry relative="1" as="geometry">
            <mxPoint x="1108" y="380" as="sourcePoint" />
          </mxGeometry>
        </mxCell>
        <mxCell id="yfXjeQQ5Y2JoiUGeMslx-1" value="Data Streaming&lt;br&gt;&lt;i&gt;Data Firehose&lt;/i&gt;" style="rounded=1;whiteSpace=wrap;html=1;" parent="1" vertex="1">
          <mxGeometry x="942" y="473" width="107" height="60" as="geometry" />
        </mxCell>
        <mxCell id="yfXjeQQ5Y2JoiUGeMslx-10" style="edgeStyle=orthogonalEdgeStyle;rounded=0;orthogonalLoop=1;jettySize=auto;html=1;exitX=0.5;exitY=1;exitDx=0;exitDy=0;entryX=0.5;entryY=0;entryDx=0;entryDy=0;" parent="1" source="yfXjeQQ5Y2JoiUGeMslx-3" target="tunja0gr6lBs-Br6g-3u-6" edge="1">
          <mxGeometry relative="1" as="geometry">
            <mxPoint x="811" y="400" as="sourcePoint" />
          </mxGeometry>
        </mxCell>
        <mxCell id="yfXjeQQ5Y2JoiUGeMslx-3" value="Vehicle / Device&lt;div&gt;Data&lt;br&gt;&lt;br&gt;&lt;/div&gt;" style="rounded=1;whiteSpace=wrap;html=1;verticalAlign=top;align=center;" parent="1" vertex="1">
          <mxGeometry x="760" y="365" width="100" height="60" as="geometry" />
        </mxCell>
        <mxCell id="yfXjeQQ5Y2JoiUGeMslx-14" style="edgeStyle=orthogonalEdgeStyle;rounded=0;orthogonalLoop=1;jettySize=auto;html=1;exitX=0.5;exitY=0;exitDx=0;exitDy=0;entryX=0.5;entryY=1;entryDx=0;entryDy=0;entryPerimeter=0;" parent="1" source="yfXjeQQ5Y2JoiUGeMslx-1" target="tunja0gr6lBs-Br6g-3u-27" edge="1">
          <mxGeometry relative="1" as="geometry" />
        </mxCell>
        <mxCell id="f0TFdQRqyOJq5nWY4yst-1" value="Internal Data" style="rounded=1;whiteSpace=wrap;html=1;verticalAlign=top;fillColor=none;fontSize=16;" vertex="1" parent="1">
          <mxGeometry x="220" y="210" width="130" height="270" as="geometry" />
        </mxCell>
        <mxCell id="f0TFdQRqyOJq5nWY4yst-2" value="External Data" style="rounded=1;whiteSpace=wrap;html=1;verticalAlign=top;fillColor=none;fontSize=16;" vertex="1" parent="1">
          <mxGeometry x="40" y="210" width="160" height="270" as="geometry" />
        </mxCell>
        <mxCell id="f0TFdQRqyOJq5nWY4yst-3" style="edgeStyle=orthogonalEdgeStyle;rounded=0;orthogonalLoop=1;jettySize=auto;html=1;exitX=0.5;exitY=0;exitDx=0;exitDy=0;entryX=0.5;entryY=1;entryDx=0;entryDy=0;" edge="1" parent="1" source="f0TFdQRqyOJq5nWY4yst-6" target="f0TFdQRqyOJq5nWY4yst-2">
          <mxGeometry relative="1" as="geometry" />
        </mxCell>
        <mxCell id="f0TFdQRqyOJq5nWY4yst-4" style="edgeStyle=orthogonalEdgeStyle;rounded=0;orthogonalLoop=1;jettySize=auto;html=1;exitX=0.5;exitY=0;exitDx=0;exitDy=0;entryX=0.5;entryY=1;entryDx=0;entryDy=0;" edge="1" parent="1" source="f0TFdQRqyOJq5nWY4yst-6" target="f0TFdQRqyOJq5nWY4yst-1">
          <mxGeometry relative="1" as="geometry" />
        </mxCell>
        <mxCell id="f0TFdQRqyOJq5nWY4yst-5" style="edgeStyle=orthogonalEdgeStyle;rounded=0;orthogonalLoop=1;jettySize=auto;html=1;exitX=0.5;exitY=1;exitDx=0;exitDy=0;entryX=0.5;entryY=0;entryDx=0;entryDy=0;" edge="1" parent="1" source="f0TFdQRqyOJq5nWY4yst-6" target="f0TFdQRqyOJq5nWY4yst-7">
          <mxGeometry relative="1" as="geometry" />
        </mxCell>
        <mxCell id="f0TFdQRqyOJq5nWY4yst-6" value="&lt;font style=&quot;font-size: 14px;&quot;&gt;Agents&lt;/font&gt;&lt;br&gt;&lt;br&gt;&lt;i&gt;BedRock AgentCore&lt;/i&gt;" style="rounded=1;whiteSpace=wrap;html=1;" vertex="1" parent="1">
          <mxGeometry x="70" y="520" width="270" height="70" as="geometry" />
        </mxCell>
        <mxCell id="f0TFdQRqyOJq5nWY4yst-7" value="Foundation Model&lt;br&gt;&lt;i&gt;BedRock (Model)&lt;/i&gt;" style="rounded=1;whiteSpace=wrap;html=1;" vertex="1" parent="1">
          <mxGeometry x="70" y="610" width="270" height="50" as="geometry" />
        </mxCell>
        <mxCell id="f0TFdQRqyOJq5nWY4yst-8" value="Event Ticketing&lt;br&gt;&lt;i&gt;MCP Server&lt;/i&gt;" style="rounded=1;whiteSpace=wrap;html=1;" vertex="1" parent="1">
          <mxGeometry x="60" y="260" width="120" height="60" as="geometry" />
        </mxCell>
        <mxCell id="f0TFdQRqyOJq5nWY4yst-9" value="Airport Scheduling&lt;br&gt;&lt;i&gt;MCP Server&lt;/i&gt;" style="rounded=1;whiteSpace=wrap;html=1;" vertex="1" parent="1">
          <mxGeometry x="60" y="330" width="120" height="60" as="geometry" />
        </mxCell>
        <mxCell id="f0TFdQRqyOJq5nWY4yst-10" value="Internal Data&lt;br&gt;&lt;i&gt;MCP Server&lt;/i&gt;" style="rounded=1;whiteSpace=wrap;html=1;" vertex="1" parent="1">
          <mxGeometry x="240" y="260" width="90" height="60" as="geometry" />
        </mxCell>
        <mxCell id="f0TFdQRqyOJq5nWY4yst-11" value="???&lt;br&gt;&lt;i&gt;MCP Server&lt;/i&gt;" style="rounded=1;whiteSpace=wrap;html=1;" vertex="1" parent="1">
          <mxGeometry x="60" y="400" width="120" height="60" as="geometry" />
        </mxCell>
        <mxCell id="f0TFdQRqyOJq5nWY4yst-12" style="edgeStyle=orthogonalEdgeStyle;rounded=0;orthogonalLoop=1;jettySize=auto;html=1;exitX=0.5;exitY=1;exitDx=0;exitDy=0;entryX=0.181;entryY=-0.004;entryDx=0;entryDy=0;entryPerimeter=0;" edge="1" parent="1" source="tunja0gr6lBs-Br6g-3u-16" target="tunja0gr6lBs-Br6g-3u-2">
          <mxGeometry relative="1" as="geometry" />
        </mxCell>
        <mxCell id="f0TFdQRqyOJq5nWY4yst-13" value="" style="shape=actor;whiteSpace=wrap;html=1;" vertex="1" parent="1">
          <mxGeometry x="462" y="180" width="32" height="50" as="geometry" />
        </mxCell>
        <mxCell id="f0TFdQRqyOJq5nWY4yst-14" style="edgeStyle=orthogonalEdgeStyle;rounded=0;orthogonalLoop=1;jettySize=auto;html=1;exitX=0.5;exitY=1;exitDx=0;exitDy=0;entryX=0.552;entryY=0.012;entryDx=0;entryDy=0;entryPerimeter=0;" edge="1" parent="1" source="tunja0gr6lBs-Br6g-3u-17" target="tunja0gr6lBs-Br6g-3u-2">
          <mxGeometry relative="1" as="geometry" />
        </mxCell>
        <mxCell id="f0TFdQRqyOJq5nWY4yst-15" style="edgeStyle=orthogonalEdgeStyle;rounded=0;orthogonalLoop=1;jettySize=auto;html=1;exitX=0.5;exitY=1;exitDx=0;exitDy=0;entryX=0.856;entryY=0.02;entryDx=0;entryDy=0;entryPerimeter=0;" edge="1" parent="1" source="tunja0gr6lBs-Br6g-3u-18" target="tunja0gr6lBs-Br6g-3u-2">
          <mxGeometry relative="1" as="geometry" />
        </mxCell>
        <mxCell id="f0TFdQRqyOJq5nWY4yst-16" value="Ops / Admin" style="text;html=1;whiteSpace=wrap;strokeColor=none;fillColor=none;align=center;verticalAlign=middle;rounded=0;fontSize=10;" vertex="1" parent="1">
          <mxGeometry x="445" y="230" width="66" height="20" as="geometry" />
        </mxCell>
        <mxCell id="f0TFdQRqyOJq5nWY4yst-17" value="" style="shape=actor;whiteSpace=wrap;html=1;" vertex="1" parent="1">
          <mxGeometry x="588" y="180" width="32" height="50" as="geometry" />
        </mxCell>
        <mxCell id="f0TFdQRqyOJq5nWY4yst-18" value="Customers" style="text;html=1;whiteSpace=wrap;strokeColor=none;fillColor=none;align=center;verticalAlign=middle;rounded=0;fontSize=10;" vertex="1" parent="1">
          <mxGeometry x="571" y="230" width="66" height="20" as="geometry" />
        </mxCell>
        <mxCell id="f0TFdQRqyOJq5nWY4yst-19" value="" style="shape=actor;whiteSpace=wrap;html=1;" vertex="1" parent="1">
          <mxGeometry x="687" y="180" width="32" height="50" as="geometry" />
        </mxCell>
        <mxCell id="f0TFdQRqyOJq5nWY4yst-20" value="Maintenance" style="text;html=1;whiteSpace=wrap;strokeColor=none;fillColor=none;align=center;verticalAlign=middle;rounded=0;fontSize=10;" vertex="1" parent="1">
          <mxGeometry x="670" y="230" width="66" height="20" as="geometry" />
        </mxCell>
        <mxCell id="f0TFdQRqyOJq5nWY4yst-21" value="" style="shape=curlyBracket;whiteSpace=wrap;html=1;rounded=1;labelPosition=left;verticalLabelPosition=middle;align=right;verticalAlign=middle;rotation=90;" vertex="1" parent="1">
          <mxGeometry x="645" y="175" width="20" height="190" as="geometry" />
        </mxCell>
      </root>
    </mxGraphModel>
  </diagram>
</mxfile>
